<svg width="429" height="81" viewBox="0 0 429 81" fill="none" xmlns="http://www.w3.org/2000/svg">
<g clip-path="url(#clip0_1_62)">
<path d="M40.5551 19.5371L81.1622 42.9193V23.4082L40.5291 0L0 23.4341V42.9713L40.5551 19.5371Z" fill="#1F7A6B"/>
<path d="M74.6671 66.4314L81.1622 62.6123V50.6354L40.5291 27.2013L0 50.6354V62.6643L6.49505 66.4314L40.5291 46.7384L74.6671 66.4314Z" fill="#1F7A6B"/>
<path d="M40.5551 74.4333L50.8692 80.3828L67.8083 70.6402L40.5291 54.8962L13.3538 70.6402L30.2929 80.3828L40.5551 74.4333Z" fill="#1F7A6B"/>
<path d="M115.683 43.4979C109.789 43.4979 105.188 40.6649 104.351 35.5124L110.245 34.1625C110.626 37.2426 112.888 38.8397 115.911 38.8397C118.231 38.8397 120.075 37.813 120.056 35.4934C120.037 32.9076 116.995 32.09 113.649 31.0633C109.618 29.8085 105.302 28.3254 105.302 23.268C105.302 18.1534 109.485 15.2634 114.999 15.2634C119.828 15.2634 124.695 17.2218 125.798 22.4884L120.284 23.8574C119.771 21.1195 117.927 19.9217 115.341 19.9217C113.04 19.9217 111.082 20.8723 111.082 23.1349C111.082 25.2453 113.782 25.9488 116.9 26.8805C121.045 28.1353 125.95 29.7324 125.95 35.2082C125.95 41.0452 121.064 43.4979 115.683 43.4979ZM137.776 43.1176C133.974 43.1176 131.806 40.9121 131.806 37.0144V27.7741H127.966V23.5722H129.201C131.274 23.5722 132.415 22.7736 132.415 19.8456V17.2598H137.358V23.5722H141.389V27.7741H137.358V36.425C137.358 38.1742 138.214 38.9538 139.621 38.9538H141.389V43.1176H137.776ZM154.736 43.4979C148.519 43.4979 144.032 39.7143 144.032 33.3259C144.032 26.9755 148.481 23.1919 154.736 23.1919C161.029 23.1919 165.459 26.9755 165.459 33.3259C165.459 39.7143 161.01 43.4979 154.736 43.4979ZM154.679 39.1439C157.854 39.1439 160.022 36.8243 160.022 33.3259C160.022 29.8275 157.854 27.5079 154.679 27.5079C151.618 27.5079 149.469 29.8275 149.469 33.3259C149.469 36.8243 151.618 39.1439 154.679 39.1439ZM181.069 23.1919C185.765 23.1919 188.351 25.6256 188.351 29.9606V43.1176H182.856V31.1394C182.856 28.5346 181.24 27.5839 179.358 27.5839C177.095 27.5839 175.042 28.7247 175.004 32.3372V43.1176H169.528V23.5722H175.004V25.7397C176.373 24.1235 178.483 23.1919 181.069 23.1919ZM212.042 33.0597L211.984 34.3716H197.497C197.725 37.6228 199.892 39.1819 202.497 39.1819C204.455 39.1819 205.976 38.2693 206.718 36.5391L211.737 37.2806C210.444 41.2353 206.927 43.4979 202.535 43.4979C196.223 43.4979 192.097 39.7713 192.097 33.3449C192.097 26.9185 196.337 23.1539 202.364 23.1539C207.897 23.1539 212.023 26.215 212.042 33.0597ZM202.402 27.0326C199.911 27.0326 198.181 28.1923 197.649 30.7971H206.623C206.338 28.3064 204.645 27.0326 202.402 27.0326ZM250.923 23.5722H256.589L249.745 43.1366H244.668L240.143 30.2268L235.58 43.1366H230.427L223.716 23.5722H229.362L233.393 36.2919L238.013 23.5722H242.215L246.816 36.2539L250.923 23.5722ZM268.739 43.4979C262.521 43.4979 258.034 39.7143 258.034 33.3259C258.034 26.9755 262.483 23.1919 268.739 23.1919C275.032 23.1919 279.462 26.9755 279.462 33.3259C279.462 39.7143 275.013 43.4979 268.739 43.4979ZM268.682 39.1439C271.857 39.1439 274.024 36.8243 274.024 33.3259C274.024 29.8275 271.857 27.5079 268.682 27.5079C265.62 27.5079 263.472 29.8275 263.472 33.3259C263.472 36.8243 265.62 39.1439 268.682 39.1439ZM288.778 26.6713C289.767 24.9411 292.334 23.344 295.167 23.344V28.2304C291.022 28.2304 289.045 29.4472 289.045 33.5921V43.1176H283.531V23.5722H288.778V26.6713ZM311.347 43.1176L305.054 34.904H303.913V43.1176H298.38V13.9135H303.913V31.1014H304.94L311.081 23.5722H317.279L309.579 32.6414L318.002 43.1176H311.347ZM327.679 43.4979C323.287 43.4979 319.884 41.7677 319.18 38.0601L323.762 36.7673C324.352 38.8587 325.835 39.6763 327.679 39.6763C329.029 39.6763 330.493 39.258 330.455 37.7179C330.436 35.6835 327.356 35.5124 324.257 34.4096C321.918 33.5921 319.675 32.3372 319.675 29.0479C319.675 25.0362 323.002 23.1919 327.337 23.1919C331.14 23.1919 334.315 24.6369 335.075 28.3635L330.835 29.3141C330.246 27.4889 328.953 26.8424 327.356 26.8424C325.911 26.8424 324.675 27.3558 324.675 28.5726C324.675 30.1127 326.938 30.4169 329.39 31.0823C332.413 31.8999 335.722 33.2118 335.722 37.3947C335.722 41.8818 331.9 43.4979 327.679 43.4979ZM361.922 15.6437C367.302 15.6437 370.649 19.6365 370.649 24.5228C370.649 29.5233 367.302 33.2688 361.922 33.2688H356.199V43.1176H350.495V15.6437L361.922 15.6437ZM360.971 28.4966C363.823 28.4966 365.154 26.9185 365.154 24.4468C365.154 22.0701 363.823 20.416 360.971 20.416H356.199V28.4966L360.971 28.4966ZM375.44 43.1176V15.6437H385.384C394.149 15.6437 398.484 21.1575 398.484 29.3712C398.484 37.6038 394.149 43.1176 385.384 43.1176H375.44ZM381.144 38.0792H385.099C390.156 38.0792 392.476 34.923 392.476 29.3712C392.476 23.8193 390.156 20.6632 385.099 20.6632H381.144V38.0792ZM400.823 43.1176L411.527 28.7818L401.127 15.6437H408.067L414.911 24.6559L421.756 15.6437H428.696L418.296 28.7818L429 43.1176H421.737L414.911 33.4019L408.086 43.1176H400.823Z" fill="#222222"/>
<path d="M109.322 65.8257L104.926 65.8257C104.765 65.8257 104.628 65.7703 104.517 65.6596C104.407 65.5488 104.351 65.4168 104.351 65.2634V65.2379V65.2123V56.3058C104.351 56.1524 104.407 56.0204 104.517 55.9096C104.628 55.7989 104.765 55.7435 104.926 55.7435H109.322C109.484 55.7435 109.62 55.7989 109.731 55.9096C109.842 56.0204 109.897 56.1524 109.897 56.3058C109.897 56.4676 109.842 56.6018 109.731 56.7083C109.62 56.8148 109.484 56.868 109.322 56.868H105.489V60.1265H108.722C108.875 60.1265 109.007 60.1798 109.118 60.2862C109.228 60.3927 109.284 60.5269 109.284 60.6888C109.284 60.8421 109.228 60.9741 109.118 61.0849C109.007 61.1956 108.875 61.251 108.722 61.251H105.489V64.6884H109.322C109.484 64.6884 109.62 64.7438 109.731 64.8545C109.842 64.9653 109.897 65.1016 109.897 65.2635C109.897 65.4168 109.842 65.5488 109.731 65.6596C109.62 65.7703 109.484 65.8257 109.322 65.8257ZM123.109 65.8257H119.697C119.544 65.8257 119.412 65.7703 119.301 65.6596C119.19 65.5488 119.135 65.4168 119.135 65.2635V56.3058C119.135 56.1439 119.19 56.0097 119.301 55.9032C119.412 55.7968 119.544 55.7435 119.697 55.7435C119.859 55.7435 119.993 55.7968 120.1 55.9032C120.206 56.0097 120.259 56.1439 120.259 56.3058V64.7012H123.109C123.271 64.7012 123.407 64.7566 123.518 64.8673C123.629 64.9781 123.684 65.1101 123.684 65.2635C123.684 65.4168 123.629 65.5488 123.518 65.6596C123.407 65.7703 123.271 65.8257 123.109 65.8257ZM137.509 65.8257L133.113 65.8257C132.951 65.8257 132.815 65.7703 132.704 65.6596C132.593 65.5488 132.538 65.4168 132.538 65.2634V65.2379V65.2123V56.3058C132.538 56.1524 132.593 56.0204 132.704 55.9096C132.815 55.7989 132.951 55.7435 133.113 55.7435H137.509C137.671 55.7435 137.807 55.7989 137.918 55.9096C138.029 56.0204 138.084 56.1524 138.084 56.3058C138.084 56.4676 138.029 56.6018 137.918 56.7083C137.807 56.8148 137.671 56.868 137.509 56.868H133.675V60.1265H136.908C137.062 60.1265 137.194 60.1798 137.304 60.2862C137.415 60.3927 137.471 60.5269 137.471 60.6888C137.471 60.8421 137.415 60.9741 137.304 61.0849C137.194 61.1956 137.062 61.251 136.908 61.251H133.675V64.6884H137.509C137.671 64.6884 137.807 64.7438 137.918 64.8545C138.029 64.9653 138.084 65.1016 138.084 65.2635C138.084 65.4168 138.029 65.5488 137.918 65.6596C137.807 65.7703 137.671 65.8257 137.509 65.8257ZM154.72 56.4336L151.078 65.4679C151.036 65.5787 150.968 65.666 150.874 65.7299C150.78 65.7938 150.674 65.8257 150.554 65.8257C150.435 65.8257 150.329 65.7938 150.235 65.7299C150.141 65.666 150.073 65.5787 150.03 65.4679L146.376 56.4336C146.35 56.3739 146.337 56.3015 146.337 56.2163C146.337 56.063 146.393 55.9309 146.504 55.8202C146.614 55.7094 146.746 55.6541 146.9 55.6541C147.019 55.6541 147.128 55.686 147.226 55.7499C147.324 55.8138 147.394 55.9011 147.436 56.0118L150.554 63.7428L153.672 56.0118C153.715 55.9011 153.783 55.8138 153.877 55.7499C153.97 55.686 154.077 55.6541 154.196 55.6541C154.358 55.6541 154.494 55.7094 154.605 55.8202C154.716 55.9309 154.771 56.063 154.771 56.2163C154.771 56.3015 154.754 56.3739 154.72 56.4336ZM170.641 65.7746C170.573 65.8087 170.5 65.8257 170.424 65.8257C170.313 65.8257 170.208 65.7959 170.111 65.7363C170.013 65.6766 169.942 65.5914 169.9 65.4807L168.89 63.1039H164.252L163.242 65.4807C163.182 65.6255 163.08 65.7277 162.935 65.7874C162.791 65.847 162.646 65.8427 162.501 65.7746C162.356 65.715 162.254 65.6127 162.194 65.4679C162.135 65.3231 162.139 65.1783 162.207 65.0335L163.357 62.3116L166.053 55.9991C166.096 55.8883 166.164 55.8032 166.258 55.7435C166.352 55.6839 166.458 55.6541 166.577 55.6541C166.688 55.6541 166.79 55.6839 166.884 55.7435C166.978 55.8032 167.046 55.8883 167.088 55.9991C167.736 57.5155 168.379 59.0212 169.018 60.5163C169.657 62.0114 170.3 63.5171 170.947 65.0335C171.007 65.1783 171.007 65.3231 170.947 65.4679C170.888 65.6127 170.786 65.715 170.641 65.7746ZM166.577 57.6731L164.737 61.9666H168.405L166.577 57.6731ZM184.21 56.868H182.14V65.2635C182.14 65.4168 182.085 65.5488 181.974 65.6596C181.863 65.7703 181.731 65.8257 181.578 65.8257C181.416 65.8257 181.28 65.7703 181.169 65.6596C181.058 65.5488 181.003 65.4168 181.003 65.2635V56.868H178.933C178.779 56.868 178.647 56.8148 178.537 56.7083C178.426 56.6018 178.37 56.4676 178.37 56.3058C178.37 56.1524 178.426 56.0204 178.537 55.9096C178.647 55.7989 178.779 55.7435 178.933 55.7435H184.21C184.364 55.7435 184.496 55.7989 184.606 55.9096C184.717 56.0204 184.772 56.1524 184.772 56.3058C184.772 56.4676 184.717 56.6018 184.606 56.7083C184.496 56.8148 184.364 56.868 184.21 56.868ZM198.738 65.8257L194.342 65.8257C194.18 65.8257 194.044 65.7703 193.933 65.6596C193.823 65.5488 193.767 65.4168 193.767 65.2634V65.2379V65.2123V56.3058C193.767 56.1524 193.823 56.0204 193.933 55.9096C194.044 55.7989 194.18 55.7435 194.342 55.7435H198.738C198.9 55.7435 199.036 55.7989 199.147 55.9096C199.258 56.0204 199.313 56.1524 199.313 56.3058C199.313 56.4676 199.258 56.6018 199.147 56.7083C199.036 56.8148 198.9 56.868 198.738 56.868H194.904V60.1265H198.137C198.291 60.1265 198.423 60.1798 198.534 60.2862C198.644 60.3927 198.7 60.5269 198.7 60.6888C198.7 60.8421 198.644 60.9741 198.534 61.0849C198.423 61.1956 198.291 61.251 198.137 61.251H194.904V64.6884H198.738C198.9 64.6884 199.036 64.7438 199.147 64.8545C199.258 64.9653 199.313 65.1016 199.313 65.2635C199.313 65.4168 199.258 65.5488 199.147 65.6596C199.036 65.7703 198.9 65.8257 198.738 65.8257ZM226.912 56.5869L224.011 61.7749V65.2635C224.011 65.4168 223.956 65.5488 223.845 65.6596C223.734 65.7703 223.602 65.8257 223.449 65.8257C223.296 65.8257 223.164 65.7703 223.053 65.6596C222.942 65.5488 222.887 65.4168 222.887 65.2635V61.7749L219.986 56.5869C219.935 56.5017 219.909 56.408 219.909 56.3058C219.909 56.1524 219.965 56.0204 220.075 55.9096C220.186 55.7989 220.318 55.7435 220.472 55.7435C220.574 55.7435 220.67 55.7691 220.759 55.8202C220.849 55.8713 220.919 55.9394 220.97 56.0246L223.449 60.4588L225.928 56.0246C225.979 55.9394 226.049 55.8713 226.139 55.8202C226.228 55.7691 226.324 55.7435 226.426 55.7435C226.58 55.7435 226.712 55.7989 226.822 55.9096C226.933 56.0204 226.989 56.1524 226.989 56.3058C226.989 56.408 226.963 56.5017 226.912 56.5869ZM239.983 65.8257C239.284 65.8257 238.628 65.6937 238.015 65.4296C237.402 65.1655 236.867 64.8055 236.411 64.3498C235.956 63.894 235.596 63.3595 235.332 62.7461C235.068 62.1327 234.935 61.4768 234.935 60.7782C234.935 60.0882 235.068 59.4365 235.332 58.8231C235.596 58.2097 235.956 57.6752 236.411 57.2194C236.867 56.7636 237.402 56.4037 238.015 56.1396C238.628 55.8755 239.284 55.7435 239.983 55.7435C240.673 55.7435 241.325 55.8755 241.938 56.1396C242.551 56.4037 243.086 56.7636 243.542 57.2194C243.998 57.6752 244.357 58.2097 244.622 58.8231C244.886 59.4365 245.018 60.0882 245.018 60.7782C245.018 61.4768 244.886 62.1327 244.622 62.7461C244.357 63.3595 243.998 63.894 243.542 64.3498C243.086 64.8055 242.551 65.1655 241.938 65.4296C241.325 65.6937 240.673 65.8257 239.983 65.8257ZM239.983 56.868C239.446 56.868 238.939 56.9702 238.462 57.1747C237.985 57.3792 237.568 57.6581 237.21 58.0117C236.852 58.3652 236.571 58.7805 236.367 59.2576C236.162 59.7346 236.06 60.2415 236.06 60.7782C236.06 61.3149 236.162 61.8218 236.367 62.2989C236.571 62.7759 236.852 63.1933 237.21 63.5511C237.568 63.9089 237.985 64.1901 238.462 64.3945C238.939 64.599 239.446 64.7012 239.983 64.7012C240.52 64.7012 241.027 64.599 241.504 64.3945C241.981 64.1901 242.396 63.9089 242.75 63.5511C243.103 63.1933 243.382 62.7759 243.587 62.2989C243.791 61.8218 243.893 61.3149 243.893 60.7782C243.893 60.2415 243.791 59.7346 243.587 59.2576C243.382 58.7805 243.103 58.3652 242.75 58.0117C242.396 57.6581 241.981 57.3792 241.504 57.1747C241.027 56.9702 240.52 56.868 239.983 56.868ZM258.613 65.8257C258.076 65.8257 257.573 65.7234 257.105 65.519C256.636 65.3145 256.225 65.0377 255.872 64.6884C255.518 64.3391 255.239 63.9281 255.035 63.4553C254.83 62.9825 254.728 62.4777 254.728 61.941V56.3057C254.728 56.1524 254.783 56.0204 254.894 55.9096C255.005 55.7989 255.141 55.7435 255.303 55.7435C255.456 55.7435 255.588 55.7989 255.699 55.9096C255.81 56.0204 255.865 56.1524 255.865 56.3057V61.941C255.865 62.3244 255.938 62.6822 256.083 63.0144C256.227 63.3467 256.423 63.6363 256.67 63.8834C256.917 64.1304 257.209 64.3263 257.546 64.4711C257.882 64.616 258.238 64.6884 258.613 64.6884C258.996 64.6884 259.354 64.616 259.686 64.4711C260.018 64.3263 260.31 64.1304 260.561 63.8834C260.813 63.6363 261.011 63.3445 261.156 63.008C261.3 62.6715 261.373 62.3159 261.373 61.9411V56.3058C261.373 56.1524 261.428 56.0204 261.539 55.9096C261.65 55.7989 261.782 55.7435 261.935 55.7435C262.097 55.7435 262.233 55.7989 262.344 55.9096C262.455 56.0204 262.51 56.1524 262.51 56.3058V61.9411C262.51 62.4778 262.408 62.9825 262.203 63.4553C261.999 63.9281 261.72 64.3391 261.366 64.6884C261.013 65.0377 260.6 65.3146 260.127 65.519C259.654 65.7235 259.149 65.8257 258.613 65.8257ZM275.313 61.3916L275.159 61.3916L275.326 61.0977L277.638 64.9695C277.69 65.0632 277.715 65.1612 277.715 65.2634C277.715 65.4168 277.66 65.5488 277.549 65.6596C277.438 65.7703 277.306 65.8257 277.153 65.8257C277.051 65.8257 276.955 65.8001 276.865 65.749C276.776 65.6979 276.706 65.6297 276.655 65.5446L274.176 61.3916H273.626V65.2634C273.626 65.4168 273.571 65.5488 273.46 65.6596C273.349 65.7703 273.217 65.8257 273.064 65.8257C272.902 65.8257 272.766 65.7703 272.655 65.6596C272.544 65.5488 272.489 65.4168 272.489 65.2634V56.3057C272.489 56.1524 272.544 56.0204 272.655 55.9096C272.766 55.7989 272.902 55.7435 273.064 55.7435H275.313C275.705 55.7435 276.073 55.818 276.418 55.9671C276.763 56.1162 277.063 56.3185 277.319 56.5741C277.575 56.8297 277.777 57.1278 277.926 57.4686C278.075 57.8093 278.15 58.1757 278.15 58.5675C278.15 58.9594 278.075 59.3257 277.926 59.6665C277.777 60.0073 277.575 60.3054 277.319 60.561C277.063 60.8166 276.763 61.0189 276.418 61.168C276.073 61.317 275.705 61.3916 275.313 61.3916ZM275.313 56.868H273.626V60.2543H275.313C275.543 60.2543 275.762 60.2096 275.971 60.1201C276.18 60.0307 276.361 59.9093 276.514 59.7559C276.667 59.6026 276.789 59.4237 276.878 59.2192C276.968 59.0148 277.012 58.7975 277.012 58.5675C277.012 58.3375 276.968 58.1181 276.878 57.9094C276.789 57.7007 276.667 57.5197 276.514 57.3664C276.361 57.213 276.18 57.0916 275.971 57.0022C275.762 56.9127 275.543 56.868 275.313 56.868ZM306.349 65.8257C306.196 65.8257 306.064 65.7703 305.953 65.6596C305.842 65.5488 305.787 65.4168 305.787 65.2635V60.9316H300.765V65.2635C300.765 65.4168 300.71 65.5488 300.599 65.6596C300.488 65.7703 300.356 65.8257 300.203 65.8257C300.041 65.8257 299.904 65.7703 299.794 65.6596C299.683 65.5488 299.628 65.4168 299.628 65.2635V56.3058C299.628 56.1524 299.683 56.0204 299.794 55.9096C299.904 55.7989 300.041 55.7435 300.203 55.7435C300.356 55.7435 300.488 55.7989 300.599 55.9096C300.71 56.0204 300.765 56.1524 300.765 56.3058V59.7943H305.787V56.3058C305.787 56.1524 305.842 56.0204 305.953 55.9096C306.064 55.7989 306.196 55.7435 306.349 55.7435C306.511 55.7435 306.647 55.7989 306.758 55.9096C306.869 56.0204 306.924 56.1524 306.924 56.3058V65.2635C306.924 65.4168 306.869 65.5488 306.758 65.6596C306.647 65.7703 306.511 65.8257 306.349 65.8257ZM321.669 65.8257C320.971 65.8257 320.315 65.6937 319.701 65.4296C319.088 65.1655 318.553 64.8055 318.098 64.3498C317.642 63.894 317.282 63.3595 317.018 62.7461C316.754 62.1327 316.622 61.4768 316.622 60.7782C316.622 60.0882 316.754 59.4365 317.018 58.8231C317.282 58.2097 317.642 57.6752 318.098 57.2194C318.553 56.7636 319.088 56.4037 319.701 56.1396C320.315 55.8755 320.971 55.7435 321.669 55.7435C322.359 55.7435 323.011 55.8755 323.624 56.1396C324.238 56.4037 324.772 56.7636 325.228 57.2194C325.684 57.6752 326.044 58.2097 326.308 58.8231C326.572 59.4365 326.704 60.0882 326.704 60.7782C326.704 61.4768 326.572 62.1327 326.308 62.7461C326.044 63.3595 325.684 63.894 325.228 64.3498C324.772 64.8055 324.238 65.1655 323.624 65.4296C323.011 65.6937 322.359 65.8257 321.669 65.8257ZM321.669 56.868C321.132 56.868 320.626 56.9702 320.149 57.1747C319.671 57.3792 319.254 57.6581 318.896 58.0117C318.538 58.3652 318.257 58.7805 318.053 59.2576C317.848 59.7346 317.746 60.2415 317.746 60.7782C317.746 61.3149 317.848 61.8218 318.053 62.2989C318.257 62.7759 318.538 63.1933 318.896 63.5511C319.254 63.9089 319.671 64.1901 320.149 64.3945C320.626 64.599 321.132 64.7012 321.669 64.7012C322.206 64.7012 322.713 64.599 323.19 64.3945C323.667 64.1901 324.082 63.9089 324.436 63.5511C324.789 63.1933 325.068 62.7759 325.273 62.2989C325.477 61.8218 325.579 61.3149 325.579 60.7782C325.579 60.2415 325.477 59.7346 325.273 59.2576C325.068 58.7805 324.789 58.3652 324.436 58.0117C324.082 57.6581 323.667 57.3792 323.19 57.1747C322.713 56.9702 322.206 56.868 321.669 56.868ZM345.819 65.8257C345.666 65.8257 345.534 65.7703 345.423 65.6596C345.312 65.5488 345.257 65.4168 345.257 65.2635V58.6059L341.909 65.5062C341.858 65.5999 341.785 65.6766 341.692 65.7363C341.598 65.7959 341.5 65.8257 341.398 65.8257C341.296 65.8257 341.198 65.7959 341.104 65.7363C341.01 65.6766 340.938 65.5999 340.887 65.5062L337.539 58.6059V65.2635C337.539 65.4168 337.485 65.5488 337.379 65.6596C337.272 65.7703 337.138 65.8257 336.976 65.8257C336.823 65.8257 336.691 65.7703 336.58 65.6596C336.47 65.5488 336.414 65.4168 336.414 65.2635V56.3058C336.414 56.1524 336.47 56.0204 336.58 55.9096C336.691 55.7989 336.823 55.7435 336.976 55.7435C337.206 55.7435 337.377 55.8457 337.488 56.0502L341.398 63.9856L345.308 56.0502C345.419 55.8457 345.589 55.7435 345.819 55.7435C345.972 55.7435 346.105 55.7989 346.215 55.9096C346.326 56.0204 346.381 56.1524 346.381 56.3058V65.2635C346.381 65.4168 346.326 65.5488 346.215 65.6596C346.105 65.7703 345.972 65.8257 345.819 65.8257ZM361.331 65.8257L356.935 65.8257C356.773 65.8257 356.637 65.7703 356.526 65.6596C356.415 65.5488 356.36 65.4168 356.36 65.2634V65.2379V65.2123V56.3058C356.36 56.1524 356.415 56.0204 356.526 55.9096C356.637 55.7989 356.773 55.7435 356.935 55.7435H361.331C361.493 55.7435 361.629 55.7989 361.74 55.9096C361.851 56.0204 361.906 56.1524 361.906 56.3058C361.906 56.4676 361.851 56.6018 361.74 56.7083C361.629 56.8148 361.493 56.868 361.331 56.868H357.497V60.1265H360.73C360.884 60.1265 361.016 60.1798 361.126 60.2862C361.237 60.3927 361.293 60.5269 361.293 60.6888C361.293 60.8421 361.237 60.9741 361.126 61.0849C361.016 61.1956 360.884 61.251 360.73 61.251H357.497V64.6884H361.331C361.493 64.6884 361.629 64.7438 361.74 64.8545C361.851 64.9653 361.906 65.1016 361.906 65.2635C361.906 65.4168 361.851 65.5488 361.74 65.6596C361.629 65.7703 361.493 65.8257 361.331 65.8257Z" fill="#222222"/>
</g>
<defs>
<clipPath id="clip0_1_62">
<rect width="429" height="80.3828" fill="white"/>
</clipPath>
</defs>
</svg>
